<?xml version="1.0" standalone="no"?>
<!DOCTYPE svg PUBLIC "-//W3C//DTD SVG 20010904//EN"
 "http://www.w3.org/TR/2001/REC-SVG-20010904/DTD/svg10.dtd">
<svg version="1.0" xmlns="http://www.w3.org/2000/svg"
 width="500.000000pt" height="500.000000pt" viewBox="0 0 500.000000 500.000000"
 preserveAspectRatio="xMidYMid meet">
<metadata>
Created by potrace 1.14, written by Peter Selinger 2001-2017
</metadata>
<g transform="translate(0.000000,500.000000) scale(0.100000,-0.100000)"
fill="#000000" stroke="none">
<path d="M2297 4854 c-1 -1 -22 -5 -45 -9 -66 -9 -162 -42 -206 -70 -44 -27
-158 -134 -196 -185 -14 -18 -29 -38 -35 -45 -24 -27 -80 -127 -77 -137 1 -5
-2 -8 -7 -8 -5 0 -13 -15 -16 -32 -4 -18 -11 -37 -15 -43 -10 -13 -40 -115
-34 -115 3 0 0 -9 -6 -21 -12 -21 -17 -41 -25 -96 -14 -91 -16 -114 -21 -192
-3 -46 -12 -97 -20 -113 -10 -19 -13 -43 -9 -71 10 -73 14 -110 20 -192 6 -74
27 -138 76 -227 5 -10 9 -26 9 -37 0 -20 13 -48 45 -95 11 -16 21 -34 22 -40
6 -24 24 -123 28 -151 3 -28 7 -47 20 -116 7 -37 32 -95 61 -141 47 -74 47
-79 -2 -134 -58 -64 -66 -97 -48 -201 6 -41 5 -44 -37 -83 -24 -22 -53 -43
-63 -46 -42 -14 -85 -60 -81 -89 2 -20 -8 -29 -55 -54 -55 -29 -177 -69 -265
-87 -50 -10 -44 -8 -85 -22 -19 -6 -46 -14 -60 -16 -96 -20 -120 -26 -158 -40
-23 -8 -46 -16 -50 -16 -36 -4 -292 -78 -337 -97 -22 -9 -59 -29 -81 -45 -23
-15 -44 -25 -46 -22 -8 8 -78 -26 -79 -39 -3 -26 5 -46 66 -177 62 -133 76
-165 80 -185 6 -23 69 -181 78 -193 6 -7 12 -51 14 -98 2 -48 8 -95 14 -105 5
-11 6 -19 2 -19 -4 0 -3 -4 2 -8 17 -12 38 -65 41 -100 1 -19 5 -36 8 -39 3
-4 1 -12 -5 -20 -6 -7 -7 -13 -2 -13 5 0 8 -24 8 -52 l0 -53 81 -26 c102 -33
191 -76 198 -96 3 -8 6 -24 6 -34 0 -28 59 -115 87 -128 21 -10 28 -22 24 -43
-2 -14 16 -9 42 12 14 11 29 20 34 20 4 0 20 7 35 14 51 27 102 21 113 -14 8
-26 140 -134 173 -141 15 -3 64 -4 109 -1 50 3 87 1 95 -5 28 -23 106 -62 124
-62 70 -2 94 -9 209 -61 21 -10 161 -43 183 -43 6 0 13 -4 13 -9 1 -4 3 -12 4
-18 1 -5 3 -15 4 -21 1 -14 36 -7 37 9 1 6 2 16 3 21 0 6 9 10 19 10 22 0 44
5 58 14 7 4 23 -3 38 -14 40 -31 85 -41 109 -24 17 12 21 28 24 102 2 48 5 94
5 101 1 7 11 12 22 10 12 -1 26 1 32 5 18 11 37 -20 32 -53 -3 -16 -2 -30 2
-30 3 0 6 -15 6 -33 4 -133 3 -127 27 -127 12 0 35 9 51 19 17 11 33 18 38 15
4 -3 8 2 8 11 0 9 4 14 9 10 9 -5 138 14 208 31 43 10 81 32 152 86 54 42 92
64 121 73 32 9 107 18 168 19 78 3 145 18 172 41 24 20 117 58 145 60 6 1 36
9 69 20 l59 19 19 -28 c15 -20 23 -24 33 -16 7 6 17 9 23 8 13 -4 48 36 69 81
20 42 112 98 130 80 7 -7 17 -1 31 18 12 15 28 35 36 43 62 65 119 190 95 206
-12 7 -11 79 2 129 19 76 30 131 31 150 0 6 4 18 9 27 5 10 12 44 15 75 5 68
12 128 14 128 1 0 3 14 5 30 7 52 14 71 35 95 11 13 20 35 21 49 1 49 24 96
47 96 26 1 27 3 18 32 -4 14 1 40 15 72 22 53 20 120 -4 122 -24 2 -82 7 -99
8 -9 1 -23 7 -30 14 -15 15 -79 43 -90 39 -4 -1 -19 3 -33 8 -14 5 -40 13 -58
16 -45 8 -45 8 -112 28 -55 17 -70 21 -85 25 -3 0 -27 7 -55 15 -27 8 -65 18
-84 21 -19 3 -42 10 -52 16 -11 5 -19 8 -19 5 0 -2 -24 2 -52 10 -29 8 -66 17
-83 20 -16 3 -58 14 -92 24 -34 11 -67 20 -72 20 -17 0 -141 59 -142 67 -1 5
-2 19 -3 33 -4 48 -16 70 -42 71 -13 1 -28 3 -34 4 -5 1 -18 3 -28 4 -9 0 -23
14 -30 29 -7 16 -23 35 -37 42 -18 9 -24 20 -22 36 4 30 17 43 17 18 0 -10 5
-26 11 -34 8 -12 9 -11 5 5 -3 11 -8 47 -11 80 -7 83 -16 125 -26 125 -5 0 -9
4 -9 9 0 5 -20 30 -44 57 -47 51 -48 59 -9 111 23 31 50 95 59 138 6 30 13 63
19 83 2 9 11 44 19 78 21 84 34 110 65 125 34 18 36 21 62 104 12 38 27 77 33
85 28 36 48 100 52 160 2 36 6 81 9 100 3 19 7 59 10 89 3 45 1 54 -14 58 -15
4 -17 11 -12 41 8 47 6 216 -3 262 -4 19 -9 46 -11 60 -8 54 -16 96 -22 120
-3 14 -8 34 -10 45 -1 11 -7 29 -12 40 -5 11 -19 42 -31 70 -36 80 -98 165
-184 250 -98 96 -105 101 -181 142 -128 67 -176 76 -423 77 -122 1 -224 1
-225 0z"/>
</g>
</svg>
